<svg width="16" height="16" viewBox="0 0 16 16" fill="none" xmlns="http://www.w3.org/2000/svg">
<path fill-rule="evenodd" clip-rule="evenodd" d="M1.35559 5.17164C-0.206504 6.73373 -0.206502 9.2664 1.35559 10.8285L5.17158 14.6445C6.73367 16.2066 9.26633 16.2066 10.8284 14.6445L14.6444 10.8285C16.2065 9.26639 16.2065 6.73373 14.6444 5.17163L10.8284 1.35565C9.26633 -0.206443 6.73367 -0.206441 5.17157 1.35566L1.35559 5.17164ZM4.7998 7.33266C4.40928 7.72318 4.40928 8.35635 4.7998 8.74687L7.3326 11.2797C7.72313 11.6702 8.35629 11.6702 8.74681 11.2797L11.2796 8.74687C11.6701 8.35635 11.6701 7.72318 11.2796 7.33266L8.74681 4.79986C8.35629 4.40933 7.72313 4.40933 7.3326 4.79986L4.7998 7.33266Z" fill="#A4FC4D"/>
</svg>
