<svg width="58" height="58" viewBox="0 0 58 58" fill="none" xmlns="http://www.w3.org/2000/svg">
<rect width="58" height="58" rx="29" fill="#0F1018"/>
<mask id="path-2-inside-1_113_253" fill="white">
<path fill-rule="evenodd" clip-rule="evenodd" d="M14 14C12.8954 14 12 14.8954 12 16V35.697C12 36.8015 12.8954 37.697 14 37.697H22.303L28.6096 44.0036L34.9162 37.697H44C45.1046 37.697 46 36.8015 46 35.697V16C46 14.8954 45.1046 14 44 14H14Z"/>
</mask>
<path d="M22.303 37.697L23.7172 36.2828L23.1315 35.697H22.303V37.697ZM28.6096 44.0036L27.1954 45.4178L28.6096 46.832L30.0238 45.4178L28.6096 44.0036ZM34.9162 37.697V35.697H34.0878L33.502 36.2828L34.9162 37.697ZM14 16V16V12C11.7909 12 10 13.7909 10 16H14ZM14 35.697V16H10V35.697H14ZM14 35.697H14H10C10 37.9061 11.7909 39.697 14 39.697V35.697ZM22.303 35.697H14V39.697H22.303V35.697ZM30.0238 42.5893L23.7172 36.2828L20.8888 39.1112L27.1954 45.4178L30.0238 42.5893ZM33.502 36.2828L27.1954 42.5893L30.0238 45.4178L36.3304 39.1112L33.502 36.2828ZM44 35.697H34.9162V39.697H44V35.697ZM44 35.697V39.697C46.2091 39.697 48 37.9061 48 35.697H44ZM44 16V35.697H48V16H44ZM44 16V16H48C48 13.7909 46.2091 12 44 12V16ZM14 16H44V12H14V16Z" fill="#A4FC4D" mask="url(#path-2-inside-1_113_253)"/>
<circle cx="22.303" cy="26.3636" r="2.06061" fill="#A4FC4D"/>
<circle cx="29.5152" cy="26.3636" r="2.06061" fill="#A4FC4D"/>
<circle cx="36.7272" cy="26.3636" r="2.06061" fill="#A4FC4D"/>
</svg>
