<svg width="200" height="38" viewBox="0 0 200 38" fill="none" xmlns="http://www.w3.org/2000/svg">
<path fill-rule="evenodd" clip-rule="evenodd" d="M28.5409 35.9821L21.2188 37.4724L13.5677 25.5894L14.0612 36.6664L1.44747 35.3697L0.635498 4.83059L13.0828 2.48004L17.5732 11.0301L17.2442 2.67252L31.5557 1.87427L31.5485 1.95636L69.8812 2.08659L69.9429 13.1933L63.4661 13.4784L62.1302 36.9176L49.8357 35.6882L49.9265 25.7347L42.1409 25.2768L41.7497 36.7008L29.7167 37.5988L30.2489 16.6595L28.5409 35.9821ZM40.2122 23.1598L48.3722 23.6398L48.6522 17.1198L40.5322 16.8398L40.7722 11.4002L52.0522 11.9598L51.8522 33.8798L60.2522 34.7198L61.5722 11.5598L67.9322 11.2798L67.8922 4.07985L32.5722 3.95985L31.7722 35.4398L39.8122 34.8398L40.2122 23.1598ZM50.0348 13.8622L42.6817 13.4971L42.6193 14.9106L50.0229 15.1659L50.0348 13.8622ZM19.9201 19.7998L12.0001 4.71984L2.68005 6.47985L3.40005 33.5598L11.9601 34.4398L11.2401 18.2798L22.1601 35.2398L26.6801 34.3198L29.3601 3.99984L19.3201 4.55984L19.9201 19.7998Z" fill="white"/>
<path fill-rule="evenodd" clip-rule="evenodd" d="M104.36 13.2398C102.16 12.1599 99.68 11.3599 97.2801 11.3599C93.5601 11.3599 90.3601 13.3199 90.3601 19.1999C90.3601 24.2799 94.2401 27.8799 97.4401 27.8799C98.9834 27.8799 100.378 27.2439 101.316 25.7868C101.667 25.2424 101.953 24.5833 102.16 23.7999L97.0801 23.7199L96.9601 17.8799L111.72 17.1999C111.816 17.6779 111.81 18.1051 111.803 18.5625C111.802 18.6792 111.8 18.7979 111.8 18.9199C111.8 18.9253 111.8 18.9308 111.8 18.9363C111.8 19.024 111.8 19.1114 111.799 19.1984C111.676 30.6391 104.023 35.5199 97.0001 35.5199C89.1601 35.5199 81.0801 29.3999 81.0801 19.1999C81.0801 9.31989 88.8401 3.43989 97.8801 3.43989C100.635 3.43989 103.417 3.92389 106.181 5.04621C106.595 5.21407 107.008 5.39621 107.42 5.59315C107.614 5.68546 107.807 5.78102 108 5.87989L104.36 13.2398C104.36 13.2398 104.36 13.2398 104.36 13.2398ZM98.3619 25.7403L96.494 25.7109C96.836 25.8253 97.1573 25.8799 97.4401 25.8799C97.7834 25.8799 98.0894 25.8319 98.3619 25.7403ZM95.1051 24.9595C94.7959 24.7257 94.4881 24.4446 94.1922 24.1131C93.1292 22.9221 92.3601 21.2193 92.3601 19.1999C92.3601 16.6149 93.0567 15.2473 93.8164 14.5116C94.5909 13.7616 95.749 13.3599 97.2801 13.3599C99.263 13.3599 101.431 14.0301 103.479 15.0352L104.489 15.5309L94.9204 15.9717L95.1051 24.9595ZM105.481 15.4852L110.667 4.99841L108.911 4.09959C105.253 2.22662 101.538 1.43989 97.8801 1.43989C92.9371 1.43989 88.2484 3.04762 84.7679 6.11429C81.2597 9.20542 79.0801 13.6954 79.0801 19.1999C79.0801 30.6289 88.1842 37.5199 97.0001 37.5199C100.991 37.5199 105.207 36.1234 108.438 33.0296C110.803 30.7654 112.558 27.6723 113.344 23.745C113.872 25.8879 114.574 27.8775 115.463 29.6435C117.801 34.2931 121.594 37.6399 126.974 37.6399C132.775 37.6399 136.447 33.9699 138.556 29.2393C140.636 24.5756 141.374 18.5837 141.374 12.9599C141.374 12.7739 141.374 12.5886 141.372 12.4038L148.55 21.768L148.726 37.7359L162.559 36.555L162.428 21.9495L168.974 11.9773C168.968 12.143 168.965 12.3106 168.965 12.4799C168.965 15.604 170.36 17.7699 172.405 19.191C174.31 20.5149 176.723 21.1569 178.813 21.5969C179.603 21.7635 180.333 21.9003 181.009 22.0268C182.283 22.2653 183.363 22.4676 184.293 22.7658C184.971 22.983 185.311 23.1807 185.458 23.3094C185.469 23.319 185.478 23.3272 185.485 23.3341C185.481 23.6806 185.352 23.9594 184.92 24.2367C184.409 24.5644 183.504 24.8399 182.205 24.8399C180.076 24.8399 177.477 24.1387 174.921 22.3278L173.327 21.1991L166.895 29.8356L167.914 31.0476C171.21 34.9635 177.428 36.8399 183.085 36.8399C187.029 36.8399 191.086 35.9459 194.224 33.8806C197.443 31.7622 199.645 28.425 199.645 23.8799C199.645 20.0478 198.399 17.3028 196.29 15.4498C195.581 14.8269 194.803 14.3309 193.994 13.9326L194.381 2.12599L192.666 1.82919C190.516 1.45701 187.835 1.11989 184.965 1.11989C181.438 1.11989 177.551 1.6076 174.475 3.24426C173.903 3.54887 173.353 3.89646 172.836 4.29183L162.52 0.402432L156.903 10.3969L151.273 0.37207L140.756 3.94163C140.728 3.75121 140.7 3.56189 140.671 3.37368L140.384 1.51998L129.236 2.52201L129.603 4.65867C130.027 7.12449 130.334 9.9301 130.334 13.1599C130.334 16.4832 130.042 19.0817 129.435 20.7837C129.136 21.6228 128.809 22.1043 128.531 22.3606C128.299 22.5753 128.056 22.6799 127.694 22.6799C127.501 22.6799 126.844 22.5957 126.18 20.6222C125.553 18.7581 125.214 15.9233 125.214 12.3199C125.214 9.99888 125.492 6.89968 126.052 5.00807L126.733 2.70837L113.201 1.25019L112.883 3.1011C112.424 5.77407 112.094 9.52743 112.094 12.5199C112.094 13.4123 112.115 14.2993 112.156 15.1777L105.481 15.4852ZM139.382 6.51989L150.342 2.79989L156.902 14.4799L163.422 2.87989L170.742 5.63989L160.422 21.3599L160.542 34.7199L150.702 35.5599L150.542 21.0799L139.382 6.51989ZM138.828 4.59593C138.786 4.28747 138.741 3.9821 138.694 3.67989L131.574 4.31989C131.684 4.95742 131.786 5.61727 131.878 6.30069C132.154 8.36154 132.334 10.6366 132.334 13.1599C132.334 19.9199 131.174 24.6799 127.694 24.6799C124.574 24.6799 123.214 19.6799 123.214 12.3199C123.214 10.5684 123.364 8.3269 123.693 6.40389C123.815 5.69188 123.962 5.02354 124.134 4.43989L114.854 3.43989C114.414 5.99989 114.094 9.63989 114.094 12.5199C114.094 24.9599 118.214 35.6399 126.974 35.6399C136.454 35.6399 139.374 23.9599 139.374 12.9599C139.374 11.8478 139.348 10.7581 139.295 9.69389C139.246 8.68954 139.174 7.70786 139.08 6.75137C139.025 6.18297 138.962 5.62346 138.891 5.07339C138.871 4.91343 138.85 4.75427 138.828 4.59593ZM191.217 12.9218C190.172 12.4376 187.376 11.7999 184.965 11.7999C184.486 11.7999 184.068 11.8278 183.715 11.8756C184.278 11.9521 184.913 12.0118 185.644 12.0804C185.802 12.0952 185.964 12.1105 186.131 12.1264C187.141 12.2227 188.275 12.3403 189.426 12.5391C190.007 12.6396 190.609 12.7634 191.217 12.9218ZM190.105 10.4639C188.599 10.0871 186.68 9.79989 184.965 9.79989C182.565 9.79989 180.525 10.3999 180.525 12.1599C180.525 13.6093 182.685 13.8118 185.471 14.073C190.528 14.5471 197.645 15.2144 197.645 23.8799C197.645 31.4799 190.445 34.8399 183.085 34.8399C177.725 34.8399 172.205 33.0399 169.445 29.7599L173.765 23.9599C176.645 25.9999 179.645 26.8399 182.205 26.8399C185.285 26.8399 187.485 25.5599 187.485 23.3199C187.485 21.2075 184.583 20.662 181.211 20.0284C176.539 19.1502 170.965 18.1027 170.965 12.4799C170.965 5.03989 178.165 3.11989 184.965 3.11989C187.685 3.11989 190.245 3.43989 192.325 3.79989L192.085 11.1199C191.609 10.8958 190.917 10.6668 190.105 10.4639Z" fill="white"/>
</svg>
