<svg width="26" height="26" viewBox="0 0 26 26" fill="none" xmlns="http://www.w3.org/2000/svg">
<path d="M24.4561 4.53895C24.079 4.72618 23.6914 4.8842 23.2953 5.01249C23.7643 4.41873 24.1218 3.72009 24.34 2.95556C24.3889 2.7842 24.3382 2.59662 24.2124 2.48454C24.0868 2.37238 23.9122 2.35894 23.7739 2.45074C22.9327 3.00931 22.0252 3.41072 21.0736 3.64545C20.1151 2.59679 18.8132 2 17.4674 2C14.6265 2 12.3152 4.58767 12.3152 7.76832C12.3152 8.01882 12.3294 8.26794 12.3574 8.5136C8.83212 8.16705 5.55474 6.22706 3.30416 3.13612C3.22396 3.02595 3.1004 2.96657 2.97389 2.97793C2.84731 2.98902 2.73358 3.06894 2.66964 3.19177C2.21317 4.06871 1.97186 5.07169 1.97186 6.09218C1.97186 7.4821 2.41508 8.80086 3.19802 9.83131C2.95996 9.739 2.72894 9.62363 2.50845 9.48658C2.39008 9.41282 2.24561 9.41395 2.12801 9.48944C2.01034 9.56494 1.93656 9.7038 1.93346 9.85558C1.93292 9.88115 1.93292 9.90672 1.93292 9.93264C1.93292 12.0073 2.93023 13.8752 4.455 14.8933C4.32401 14.8786 4.19309 14.8574 4.06303 14.8296C3.92894 14.8009 3.79105 14.8535 3.70063 14.968C3.61005 15.0824 3.58009 15.2419 3.62181 15.3875C4.1862 17.3604 5.63928 18.8115 7.39592 19.2539C5.93897 20.2756 4.27283 20.8108 2.52378 20.8108C2.15883 20.8108 1.79178 20.7868 1.43256 20.7392C1.25411 20.7154 1.08347 20.8334 1.0227 21.0234C0.961926 21.2135 1.02634 21.4254 1.17816 21.5344C3.42509 23.1474 6.0232 24 8.69145 24C13.9369 24 17.2183 21.2306 19.0473 18.9073C21.3281 16.0103 22.6362 12.1758 22.6362 8.38713C22.6362 8.22885 22.634 8.06901 22.6297 7.90969C23.5295 7.15063 24.3042 6.232 24.9347 5.17614C25.0304 5.01578 25.0201 4.80385 24.9091 4.65623C24.7983 4.50853 24.6137 4.46077 24.4561 4.53895Z" fill="#14151F"/>
</svg>
